<svg width="182" height="29" viewBox="0 0 182 29" fill="none" xmlns="http://www.w3.org/2000/svg">
<g clip-path="url(#clip0_2268_5471)">
<path d="M0.331183 28.3783H0.247209V28.5156H0.206055V28.1851H0.354878C0.395202 28.1851 0.420974 28.2124 0.420974 28.2504V28.3133C0.420974 28.3447 0.402683 28.3692 0.373999 28.3762L0.438849 28.516H0.390628L0.331183 28.3783ZM0.247209 28.341H0.349887C0.367347 28.341 0.380236 28.3274 0.380236 28.3108V28.2529C0.380236 28.2364 0.367347 28.2227 0.349887 28.2227H0.247209V28.341Z" fill="#0E1111"/>
<path d="M0.30513 28.6538C0.136768 28.6538 0 28.5177 0 28.3502C0 28.1826 0.136768 28.0465 0.30513 28.0465C0.473491 28.0465 0.610256 28.1826 0.610256 28.3502C0.610256 28.5177 0.473491 28.6538 0.30513 28.6538ZM0.30513 28.0937C0.162958 28.0937 0.0473911 28.2087 0.0473911 28.3502C0.0473911 28.4917 0.162958 28.6067 0.30513 28.6067C0.447301 28.6067 0.562865 28.4917 0.562865 28.3502C0.562865 28.2087 0.447301 28.0937 0.30513 28.0937Z" fill="#0E1111"/>
<path d="M28.5099 15.1815L27.9057 14.6759C27.909 14.5932 27.9332 14.3206 27.645 14.0665C26.9536 13.4567 25.2235 12.3786 23.6268 11.43C23.4385 11.3179 20.3795 10.6353 19.592 10.4607C19.5421 10.4371 19.4939 10.4106 19.4494 10.38C19.3238 10.272 19.2681 10.1086 19.1854 10.0308C19.1351 9.98408 19.0569 9.94726 18.982 9.91789C18.9808 9.79832 19.061 9.66304 19.1721 9.66304C19.3326 9.66304 19.7321 9.65063 19.9417 9.60223C20.3284 9.51287 20.651 9.17528 20.5101 8.77026C20.4419 8.57458 20.4331 8.36359 20.5134 8.17783C20.5508 8.09137 20.6003 8.00118 20.6656 7.92051C20.7134 7.86135 20.7363 7.78481 20.7234 7.70951C20.6976 7.55727 20.5616 7.43481 20.5616 7.43481C20.5616 7.43481 20.6726 7.3318 20.7442 7.20851L20.6739 6.75799C20.6731 6.72158 20.678 6.68807 20.6872 6.65704C20.7325 6.51224 20.878 6.41544 21.0726 6.30622C21.1974 6.23589 21.231 6.01166 21.1608 5.86645L20.4781 4.8057C20.4311 4.72048 20.3733 4.6187 20.4119 4.53058C20.4631 4.41351 20.523 4.21327 20.513 3.92988C20.513 3.92988 20.0369 2.79219 19.9941 2.66601C19.9837 2.6358 19.987 2.59154 19.9949 2.54272C19.9941 2.54272 19.9932 2.54272 19.9924 2.54231C20.1359 2.24692 20.2793 1.98091 20.2186 1.63877C20.1525 1.26561 20.0319 0.606569 19.5592 0.527551C19.0685 0.445637 18.6735 0.40468 18.1596 0.372824C17.7343 0.346761 16.4478 0.314491 15.6042 0.413367C14.5988 0.53086 13.645 0.838659 12.914 1.52376C12.3435 2.05827 11.6583 3.26009 11.7465 4.42343C11.835 5.58678 12.2138 6.26857 12.7194 7.24492C13.2654 8.29946 14.1751 9.42309 13.7414 9.5592C13.7335 9.56168 13.7248 9.56292 13.7165 9.56499C13.6525 9.56872 13.5876 9.57327 13.5285 9.57699C13.529 9.57906 13.5294 9.58071 13.5298 9.58278C13.403 9.58568 13.2629 9.58568 13.1136 9.7342C12.9722 9.87486 12.7552 10.3026 12.593 10.4193C12.593 10.4193 8.59021 11.3009 8.374 11.4292C6.77695 12.3778 5.04727 13.4559 4.35581 14.0657C4.06767 14.3197 4.0922 14.5924 4.09511 14.6751L3.49097 15.1807C1.28604 17.3518 0 18.7654 0 19.6135C0 20.3756 0.204984 20.918 0.689795 21.5778C2.0091 23.3741 4.06809 25.1535 6.0672 26.148C6.8913 26.558 7.90042 26.9477 9.44549 27.0719C9.61888 27.0859 9.71285 27.1823 9.74278 27.3734C9.75609 27.4595 9.78727 27.6866 9.81762 28.0465H11.1319C10.9565 24.6686 10.3099 13.0443 10.2708 12.3377L11.5465 12.1428L12.3182 28.0465H13.9418L13.5331 13.3268C13.8387 13.7244 14.0915 13.9284 14.0953 13.9321C14.0953 13.9321 14.5002 13.7194 14.9776 13.4385L15.1418 28.0465H16.8611L17.0249 13.4733C17.1921 13.5709 17.3488 13.6595 17.4794 13.7319C17.6993 13.8622 17.8411 13.9321 17.8411 13.9321C17.8411 13.9321 17.8428 13.9308 17.8436 13.93C17.8465 13.9313 17.8478 13.9321 17.8478 13.9321C17.8498 13.93 17.9214 13.8709 18.0324 13.7575C18.1476 13.6433 18.3043 13.4729 18.4719 13.2466L18.0611 28.0465H19.6843L20.4564 12.1432L21.7292 12.3377C21.6901 13.0443 21.0435 24.6682 20.8681 28.0465H22.1824C22.2127 27.6862 22.2439 27.4591 22.2572 27.3734C22.2867 27.1823 22.3807 27.0719 22.5545 27.0719C26.0534 27.0719 29.9905 23.3741 31.3102 21.5782C31.795 20.9184 32 20.376 32 19.6139C32.0008 18.7654 30.7144 17.3518 28.5099 15.1815ZM6.60274 19.2193C6.96157 19.1001 9.00434 17.8664 9.00434 17.8664L9.29622 22.828L9.30038 22.8955C8.72368 22.9733 7.5366 23.4937 7.11707 23.3576C6.45014 23.1412 4.20322 20.1332 4.37702 20.0359C4.37702 20.0359 5.09259 19.8618 5.44643 19.6843C5.80027 19.5068 6.2647 19.1663 6.2647 19.1663C6.2647 19.1663 6.42104 19.2793 6.60274 19.2193ZM5.63436 15.8848L5.07679 15.0723C5.07679 15.0723 5.07929 15.0702 5.08012 15.0694C5.17284 14.9862 7.47091 13.2524 8.71121 12.5739C8.7058 12.6215 8.76152 13.815 8.76526 13.8998C8.76526 13.9027 8.76568 13.9048 8.76568 13.9048C8.76568 13.9048 5.68135 15.8426 5.63436 15.8848ZM6.36699 17.0457C6.47218 16.9658 8.82805 15.4351 8.82805 15.4351L8.92118 16.5004L8.9216 16.5054C8.9216 16.5054 6.89379 17.7932 6.86552 17.8201L6.36408 17.0485C6.36408 17.0477 6.36532 17.0469 6.36699 17.0457ZM26.3661 15.8848C26.3191 15.8426 23.2352 13.9048 23.2352 13.9048C23.2352 13.9048 23.2352 13.9027 23.2356 13.8998C23.2393 13.8154 23.295 12.6219 23.2896 12.5739C24.5299 13.2528 26.828 14.9862 26.9207 15.0694C26.9215 15.0702 26.924 15.0723 26.924 15.0723L26.3661 15.8848ZM25.1353 17.8197C25.107 17.7932 23.0792 16.5049 23.0792 16.5049L23.0797 16.5L23.1728 15.4347C23.1728 15.4347 25.5287 16.9654 25.6338 17.0452C25.6355 17.0465 25.6372 17.0477 25.6372 17.0477L25.1353 17.8197ZM22.7009 22.8951L22.705 22.8276L22.9969 17.866C22.9969 17.866 25.0397 19.0997 25.3985 19.2189C25.5802 19.2793 25.737 19.1663 25.737 19.1663C25.737 19.1663 26.2018 19.5068 26.5552 19.6843C26.9091 19.8618 27.6246 20.0359 27.6246 20.0359C27.7984 20.1332 25.5515 23.1412 24.8846 23.3576C24.4642 23.4937 23.2776 22.9733 22.7009 22.8951ZM31.205 19.5511C31.205 19.5523 31.205 19.5535 31.205 19.5552C31.2017 19.8477 31.1285 20.4087 30.6936 21.0127C30.082 21.862 29.2637 22.9406 28.0554 23.8371C27.1885 24.4804 26.3157 25.0356 25.4758 25.4121C25.2896 25.4956 25.1045 25.5701 24.9216 25.635C24.4821 25.8014 23.9728 25.9267 23.4385 25.9275C23.2085 25.93 22.9849 25.9097 22.7682 25.8626C22.7645 25.8618 22.7603 25.8584 22.7562 25.8551C22.4763 25.779 22.5495 25.6094 22.4468 25.4758C22.3936 25.4063 22.2131 25.2834 22.1965 25.1887C22.1753 25.0683 22.219 25.0079 22.2106 24.8825C22.1994 24.7125 21.9699 24.5884 21.9491 24.4589C21.93 24.3401 22.0576 24.2764 22.0705 24.1511C22.0793 24.0679 21.9865 23.9111 21.9924 23.8615C22.004 23.7597 22.1013 23.7034 22.2156 23.7051C22.3948 23.708 22.5865 23.7341 22.774 23.7709C23.1063 23.8251 23.4364 23.9297 23.7511 24.0241C24.1977 24.149 24.6185 24.2533 24.9798 24.1805C25.0368 24.1656 25.0925 24.1461 25.1457 24.1196C26.443 23.4776 27.8508 21.4206 28.3178 20.5733C28.6047 20.0525 29.2217 19.8928 29.1498 19.5722C29.1477 19.5622 29.1448 19.5523 29.1414 19.5424C28.9984 19.1307 27.85 19.0356 27.1635 18.2706L27.1652 18.2677L28.2621 16.3155C29.2949 16.9919 30.6965 18.4485 31.1077 19.1713C31.173 19.2863 31.2063 19.4179 31.205 19.5511ZM9.9303 24.1507C9.94319 24.276 10.0708 24.3397 10.0517 24.4585C10.0309 24.588 9.80141 24.7121 9.79018 24.8821C9.78187 25.0075 9.82511 25.0679 9.80432 25.1882C9.78769 25.283 9.60765 25.4059 9.55401 25.4754C9.45131 25.609 9.52449 25.779 9.24467 25.8547C9.24051 25.858 9.23635 25.8609 9.23261 25.8622C9.01598 25.9093 8.79229 25.93 8.56236 25.9271C8.02807 25.9263 7.51872 25.8009 7.07923 25.6346C6.89629 25.5697 6.71168 25.4952 6.5254 25.4116C5.68551 25.0352 4.81276 24.48 3.94584 23.8367C2.73756 22.9402 1.91928 21.8616 1.30766 21.0123C0.872742 20.4083 0.799563 19.8473 0.796237 19.5548C0.796237 19.5535 0.796237 19.5523 0.796237 19.5507C0.79499 19.4174 0.828669 19.2859 0.894363 19.17C1.30558 18.4473 2.70721 16.991 3.74003 16.3142L4.83688 18.2665L4.83854 18.2694C4.15208 19.0348 3.00325 19.1299 2.86063 19.5411C2.85731 19.5511 2.8544 19.561 2.85232 19.5709C2.78038 19.8915 3.397 20.0512 3.68431 20.5721C4.15124 21.4194 5.55952 23.4763 6.85637 24.1184C6.90959 24.1449 6.96531 24.1643 7.02227 24.1792C7.38359 24.252 7.80437 24.1478 8.25093 24.0228C8.56568 23.9285 8.8954 23.8238 9.22803 23.7696C9.41556 23.7328 9.60723 23.7068 9.78644 23.7039C9.90037 23.7022 9.99766 23.7585 10.0097 23.8602C10.0143 23.9107 9.92157 24.0671 9.9303 24.1507ZM20.5471 5.88961C20.5878 5.96698 20.5429 6.12584 20.4598 6.13039L19.8777 6.29257C19.8485 6.40137 19.8714 6.45391 19.9442 6.54327L20.0502 6.65746L20.16 6.77826C20.2431 6.88913 20.1966 7.048 20.0681 7.09268L19.9791 7.1237C19.913 7.14646 19.7791 7.23292 19.6519 7.29332C19.5367 7.32228 19.4486 7.3409 19.4086 7.41082C19.2856 7.62677 19.4078 7.70248 19.4689 7.70248C19.5251 7.70248 19.5637 7.63339 19.6298 7.60278L19.9313 7.59988C19.9737 7.59988 20.0161 7.61271 20.0485 7.64125C20.1271 7.71076 20.1271 7.89031 20.0573 7.95733L19.7475 8.09923C19.6619 8.18114 19.8394 8.4182 19.8639 8.51211C19.9172 8.71731 19.9184 9.0582 19.4906 9.12977C18.903 9.22824 16.1597 8.70034 16.1597 8.70034C16.1597 8.70034 15.6241 8.80791 15.874 9.23899C16.1181 9.65973 16.4669 9.79046 16.5996 10.2716C16.7493 10.8152 16.5052 11.631 16.5052 11.631C15.8994 11.3477 15.3676 10.905 15.015 10.6195C14.8429 10.4801 14.7235 10.3233 14.6454 10.1636C14.5048 9.84507 14.472 9.43054 14.6612 9.23899C14.8533 9.04414 14.7647 7.94781 14.756 7.43978C14.7497 7.08564 14.6445 6.96774 14.4229 6.65746C14.4059 6.63305 14.3888 6.60822 14.3705 6.58133C14.1186 6.21148 13.9393 5.56775 14.215 5.22189C14.3327 5.0742 14.4799 5.01959 14.625 5.01545C14.81 5.01876 14.9896 5.1015 15.0957 5.17928C15.2898 5.32242 15.5181 5.75764 15.7938 5.77047C15.9809 5.77916 16.1173 5.66621 16.2266 5.3038C16.4083 4.70269 16.8574 3.68621 18.4727 3.38586C18.8033 3.32421 19.4623 3.25306 19.6086 3.3962C19.755 3.53934 19.9068 4.22899 19.8323 4.26085C19.8323 4.26085 18.3184 4.65097 18.2053 4.74902C17.9912 4.93436 18.2178 5.15197 18.476 5.31415C18.7363 5.47798 19.0777 5.54996 19.2427 5.55037C19.2461 5.55037 19.2498 5.54996 19.2536 5.54996C19.2565 5.54996 19.2598 5.55037 19.2623 5.55037C19.3629 5.55079 19.4876 5.533 19.5392 5.42502C19.7188 5.05062 19.8219 5.02786 19.9109 4.99642C20.1076 5.30836 20.4444 5.69393 20.5471 5.88961ZM16.3505 13.2333C16.3505 13.441 16.1813 13.6098 15.9721 13.6098C15.7634 13.6098 15.5942 13.441 15.5942 13.2333C15.5942 13.1163 15.7144 12.9926 15.8191 12.9073C15.9002 12.8411 15.9721 12.7981 15.9721 12.7981L15.9734 12.7989C15.9796 12.8027 16.0457 12.8436 16.1218 12.9049C16.2274 12.9905 16.3505 13.115 16.3505 13.2333ZM16.3505 15.4417C16.3505 15.6494 16.1813 15.8182 15.9721 15.8182C15.7634 15.8182 15.5942 15.6494 15.5942 15.4417C15.5942 15.234 15.7634 15.0644 15.9721 15.0644C16.1809 15.0644 16.3505 15.234 16.3505 15.4417Z" fill="#0E1111"/>
<path d="M182 0.500244H42V28.4998H182V0.500244Z" fill="white"/>
<path d="M143.569 15.3865V5.72936C143.569 5.51758 143.612 5.47522 143.824 5.47522C145.416 5.47522 146.988 5.47522 148.58 5.47522C148.771 5.47522 148.813 5.51758 148.813 5.70818C148.813 8.75781 148.813 11.8074 148.813 14.8571C148.813 14.8782 148.813 14.8994 148.813 14.9206C148.835 14.963 148.856 15.0053 148.856 15.0477C148.898 15.0265 148.941 15.0053 148.983 14.9841C149.111 14.8359 149.217 14.6876 149.344 14.5182C150.002 13.7135 150.639 12.9087 151.297 12.1039C151.382 11.9769 151.489 11.9345 151.658 11.9345C153.314 11.9345 154.992 11.9345 156.648 11.9345C156.733 11.9345 156.796 11.9345 156.881 11.9345C156.924 11.9345 156.966 11.9557 156.987 11.998C157.009 12.0192 156.966 12.0828 156.945 12.1039C156.627 12.5063 156.287 12.8875 155.968 13.2899C154.992 14.4759 154.015 15.683 153.038 16.869C152.805 17.1655 152.571 17.4408 152.317 17.7373C152.232 17.8432 152.232 17.9067 152.317 18.0126C153.017 18.8385 153.718 19.6857 154.418 20.5116C155.289 21.5493 156.138 22.5659 156.987 23.6036C157.391 24.0907 157.815 24.5778 158.219 25.0649C158.24 25.1072 158.261 25.1496 158.261 25.1919C158.219 25.2131 158.176 25.2343 158.134 25.2343C156.244 25.2343 154.334 25.2343 152.444 25.2343C152.338 25.2343 152.253 25.1919 152.189 25.1072C151.319 24.0695 150.469 23.0106 149.599 21.9729C149.408 21.7399 149.217 21.5281 149.047 21.2952C149.005 21.2528 148.941 21.2316 148.898 21.1893C148.877 21.2528 148.856 21.2952 148.856 21.3587C148.856 22.587 148.856 23.8154 148.856 25.0437C148.856 25.2131 148.835 25.2343 148.622 25.2343C147.667 25.2343 146.733 25.2343 145.777 25.2343H143.867C143.591 25.2343 143.591 25.2343 143.591 24.959C143.569 21.7823 143.569 18.5844 143.569 15.3865Z" fill="#0E1111"/>
<path d="M120.32 25.4885C119.683 25.5097 119.004 25.4038 118.367 25.2132C117.709 25.0226 117.093 24.7261 116.541 24.3661C115.862 23.9213 115.267 23.3707 114.736 22.7565C114.312 22.2483 113.972 21.6976 113.696 21.0835C113.208 19.9187 113.059 18.6904 113.165 17.462C113.208 16.8479 113.356 16.2337 113.569 15.6407C113.93 14.6454 114.503 13.7771 115.246 13.0147C115.862 12.4005 116.562 11.9134 117.348 11.5322C117.73 11.3628 118.155 11.2357 118.579 11.1298C119.407 10.9392 120.235 10.8757 121.063 10.9392C121.594 10.9816 122.125 11.0875 122.634 11.2357C123.165 11.384 123.653 11.6169 124.12 11.8922C124.779 12.2734 125.331 12.7817 125.84 13.3323C126.307 13.8406 126.689 14.3912 126.987 14.9842C127.22 15.4713 127.411 15.9796 127.517 16.5302C127.73 17.4832 127.73 18.4574 127.602 19.4316C127.517 20.0458 127.326 20.6387 127.072 21.2106C126.413 22.6295 125.352 23.6672 124.078 24.5143C123.505 24.8743 122.868 25.1285 122.21 25.2979C121.573 25.4038 120.978 25.4885 120.32 25.4885ZM120.532 16.0431C120.108 16.0431 119.704 16.1278 119.344 16.3396C118.791 16.6573 118.473 17.1656 118.346 17.7797C118.261 18.2245 118.303 18.6904 118.452 19.1351C118.643 19.6857 119.025 20.0246 119.577 20.1517C120.065 20.2787 120.575 20.2787 121.084 20.1728C121.743 20.0458 122.188 19.6646 122.358 19.0292C122.549 18.3727 122.549 17.695 122.273 17.0597C122.104 16.6573 121.806 16.382 121.382 16.2549C121.106 16.149 120.808 16.1067 120.532 16.0431Z" fill="#0E1111"/>
<path d="M65.8228 18.394C65.8441 18.8599 65.7379 19.5376 65.5468 20.1941C65.2921 21.0624 64.8887 21.8248 64.3367 22.5448C63.8271 23.2014 63.2327 23.7732 62.5745 24.2391C62.1074 24.5568 61.6191 24.8321 61.1095 25.0438C60.0692 25.4462 58.9864 25.5733 57.9036 25.4886C57.2667 25.425 56.651 25.298 56.0565 25.065C54.6341 24.5144 53.5513 23.5826 52.6171 22.4178C52.2349 21.9307 51.9377 21.4012 51.7254 20.8294C51.5343 20.3212 51.3857 19.7917 51.322 19.2411C51.2583 18.7116 51.2158 18.161 51.2583 17.6316C51.322 16.8903 51.4706 16.1703 51.7679 15.4714C52.2349 14.3066 53.0205 13.3536 53.9547 12.5488C54.4642 12.1253 55.0374 11.7653 55.6531 11.5111C56.8209 11.0028 58.0523 10.8758 59.3049 10.9817C59.8781 11.024 60.4301 11.1511 60.9822 11.3417C61.8526 11.6594 62.6382 12.1253 63.3176 12.7394C63.9757 13.3112 64.5277 13.9889 64.9524 14.7513C65.1647 15.1537 65.3345 15.5561 65.4831 15.9797C65.7379 16.6362 65.8228 17.3986 65.8228 18.394ZM56.3962 18.2034C56.3962 18.2881 56.4175 18.4575 56.4387 18.6269C56.5449 19.3893 56.9482 19.9188 57.6913 20.1094C58.3495 20.2788 59.0077 20.3 59.6446 20.0458C60.1329 19.8552 60.4514 19.474 60.5788 18.9869C60.7274 18.4787 60.7274 17.9704 60.6212 17.441C60.4301 16.6574 59.8994 16.2338 59.1987 16.1279C58.6467 16.0432 58.0947 16.0432 57.5427 16.2338C57.1818 16.3609 56.8845 16.5938 56.6722 16.9327C56.4387 17.2927 56.3962 17.6951 56.3962 18.2034Z" fill="#0E1111"/>
<path d="M74.1635 25.4883C73.5266 25.5095 72.8684 25.4036 72.2102 25.213C71.5521 25.0224 70.9151 24.7259 70.3419 24.3447C69.4077 23.7305 68.6009 22.947 67.9852 22.0151C67.6455 21.5069 67.3908 20.9562 67.1997 20.3844C66.9024 19.4526 66.8175 18.4996 66.8812 17.5466C66.9237 16.8901 67.0723 16.2759 67.2846 15.6617C67.6668 14.6452 68.2612 13.7769 69.0256 12.9933C69.6413 12.3791 70.3207 11.8709 71.1274 11.532C71.7219 11.2779 72.3376 11.1085 72.9745 11.0026C73.5478 10.9179 74.1423 10.8755 74.7155 10.939C75.0977 10.9602 75.4798 11.0449 75.862 11.1296C76.1592 11.1932 76.4564 11.2779 76.7537 11.3838C77.1146 11.532 77.4968 11.7014 77.8365 11.9132C78.622 12.358 79.259 12.9721 79.8322 13.671C80.2993 14.2428 80.6814 14.857 80.9362 15.5347C81.3608 16.6147 81.5095 17.7372 81.4033 18.8808C81.3184 19.6644 81.1485 20.4268 80.8088 21.1468C80.3417 22.1422 79.6836 22.9893 78.8556 23.7094C78.2399 24.26 77.5605 24.7047 76.7961 25.0224C76.0318 25.3189 75.1401 25.5095 74.1635 25.4883ZM74.3333 20.2362C74.4183 20.2362 74.5032 20.215 74.6093 20.215C74.9915 20.1726 75.3524 20.0879 75.6497 19.855C76.0106 19.5797 76.2017 19.1985 76.2866 18.7537C76.3715 18.2031 76.3715 17.6736 76.1804 17.1442C75.9681 16.5512 75.5223 16.2335 74.9278 16.1276C74.3546 16.0218 73.7813 16.0218 73.2081 16.2124C72.6348 16.403 72.2739 16.8053 72.1253 17.3983C71.9979 17.8854 71.9979 18.3937 72.1253 18.8808C72.2102 19.2408 72.3801 19.5373 72.6773 19.7703C73.1656 20.1726 73.7389 20.215 74.3333 20.2362Z" fill="#0E1111"/>
<path d="M164.142 25.4673C163.484 25.4884 162.826 25.3825 162.189 25.2131C161.509 25.0225 160.894 24.726 160.32 24.3448C159.365 23.7095 158.58 22.9259 157.943 21.9941C157.603 21.507 157.348 20.9564 157.178 20.3845C156.775 19.135 156.732 17.8855 156.987 16.6149C157.157 15.8313 157.454 15.0901 157.879 14.3912C158.346 13.6288 158.898 12.9511 159.599 12.3793C160.129 11.9345 160.724 11.5957 161.361 11.3416C162.444 10.918 163.569 10.8121 164.715 10.8545C165.331 10.8756 165.925 10.9815 166.499 11.1298C167.348 11.3839 168.112 11.7863 168.792 12.3369C169.514 12.9299 170.087 13.65 170.533 14.4547C170.766 14.8995 171 15.3654 171.191 15.8313C171.382 16.3184 171.488 16.8478 171.488 17.3773C171.488 17.5467 171.446 17.5891 171.276 17.6102C170.787 17.7161 170.278 17.822 169.79 17.9279C169.344 18.0126 168.919 18.1185 168.473 18.2032C168.027 18.3091 167.582 18.3938 167.136 18.4997C166.69 18.6056 166.265 18.6903 165.819 18.7962C165.352 18.9021 164.864 19.008 164.397 19.1139C163.972 19.1986 163.548 19.3045 163.123 19.3892C162.911 19.4315 162.698 19.4739 162.486 19.5163C162.444 19.5163 162.401 19.5586 162.401 19.5798C162.422 19.6221 162.444 19.6857 162.486 19.7069C162.698 19.8763 162.932 20.0457 163.144 20.2151C163.548 20.5328 163.993 20.554 164.461 20.5116C165.097 20.4481 165.586 20.1304 165.968 19.6221C166.159 19.368 166.159 19.368 166.435 19.5586C166.966 19.8975 167.497 20.2363 168.027 20.5751C168.728 21.0199 169.45 21.4858 170.15 21.9305C170.384 22.0788 170.384 22.0788 170.193 22.2906C169.726 22.7777 169.301 23.2859 168.813 23.7518C168.537 24.0272 168.24 24.2601 167.9 24.4507C167.497 24.6837 167.072 24.8955 166.647 25.0437C165.968 25.2767 165.267 25.4037 164.545 25.4249C164.418 25.4884 164.269 25.4673 164.142 25.4673ZM164.269 15.683C164.036 15.7254 163.781 15.7254 163.548 15.8101C163.059 15.9584 162.656 16.2548 162.359 16.6784C162.21 16.869 162.104 17.102 161.998 17.3137C161.977 17.3561 161.998 17.4196 161.998 17.462C161.998 17.4832 162.061 17.4832 162.083 17.4832C162.571 17.3773 163.038 17.2714 163.526 17.1655C163.993 17.0596 164.461 16.9537 164.928 16.8478C165.225 16.7843 165.501 16.7208 165.798 16.636C165.926 16.5937 165.947 16.5513 165.862 16.4666C165.416 16.0007 164.906 15.7042 164.269 15.683Z" fill="#0E1111"/>
<path d="M42.0425 16.4039C42.0425 13.5873 42.0212 10.7918 42.0425 7.9751C42.0425 7.14916 42.4459 6.49265 43.1252 6.02673C43.6348 5.66671 44.208 5.53964 44.8237 5.53964C47.1592 5.53964 49.4946 5.53964 51.83 5.53964C51.8725 5.53964 51.8937 5.53964 51.9362 5.53964C52.3395 5.51846 52.2971 5.56082 52.2971 5.92084C52.2971 7.25505 52.2971 8.56809 52.2971 9.9023C52.2971 10.1353 52.2759 10.1776 52.0211 10.1776C50.8534 10.1776 49.7069 10.1776 48.5392 10.1776C48.3056 10.1776 48.0721 10.1988 47.881 10.2835C47.4564 10.4317 47.3078 10.813 47.2865 11.2153C47.2653 11.8507 47.2653 12.486 47.2653 13.1002C47.2653 13.2272 47.2653 13.3331 47.2653 13.4602C47.2653 13.5873 47.329 13.6296 47.4352 13.6296C48.1995 13.6296 48.9638 13.6296 49.7281 13.6296C50.0254 13.6296 50.0254 13.6296 50.0254 13.9261C50.0254 15.2815 50.0254 16.6369 50.0254 17.9711C50.0254 18.2252 50.0041 18.2464 49.7494 18.2464C48.985 18.2464 48.1995 18.2464 47.4352 18.2464C47.2653 18.2464 47.2441 18.2676 47.2441 18.437C47.2441 20.6607 47.2441 22.8632 47.2441 25.0869C47.2441 25.214 47.2016 25.2563 47.0742 25.2563C45.4394 25.2563 43.8046 25.2563 42.1486 25.2563C42.0212 25.2563 42 25.1928 42 25.0869C42.0425 22.1855 42.0425 19.3053 42.0425 16.4039Z" fill="#0E1111"/>
<path d="M84.462 19.6432V16.2971C84.462 16.1065 84.4195 16.0642 84.2284 16.0642C83.6552 16.0642 83.1032 16.0642 82.5299 16.0642C82.3601 16.0642 82.3389 16.043 82.3389 15.8736C82.3389 14.4546 82.3389 13.0357 82.3389 11.6168C82.3389 11.4685 82.3813 11.4262 82.5299 11.4262C83.082 11.4262 83.6552 11.4262 84.2072 11.4262C84.4195 11.4262 84.4407 11.3838 84.4407 11.1932C84.4407 9.7743 84.4407 8.37655 84.4407 6.95763C84.4407 6.76703 84.462 6.74585 84.6531 6.74585C86.2242 6.74585 87.7953 6.74585 89.3664 6.74585C89.5787 6.74585 89.5999 6.76703 89.5999 6.97881C89.5999 7.76239 89.6211 8.56716 89.6211 9.35074C89.6211 9.9649 89.6211 10.5579 89.6424 11.172C89.6424 11.405 89.6848 11.4262 89.9184 11.4262C90.4279 11.4262 90.9162 11.4262 91.4258 11.4262C91.5956 11.4262 91.6381 11.4685 91.6381 11.638C91.6381 13.0357 91.6381 14.4546 91.6381 15.8524C91.6381 16.0218 91.5956 16.0642 91.4258 16.0642C90.9162 16.0642 90.4067 16.0642 89.8972 16.0642C89.6848 16.0642 89.6636 16.1065 89.6636 16.2971C89.6636 17.3137 89.6636 18.3302 89.6636 19.3467C89.6636 19.6009 89.6636 19.8762 89.8122 20.1303C89.9608 20.4056 90.1732 20.5751 90.4916 20.6174C90.619 20.6386 90.7676 20.6386 90.895 20.6386C91.3833 20.6386 91.8716 20.6386 92.3387 20.6386C92.5723 20.6386 92.5935 20.6598 92.5935 20.8927V24.8742C92.5935 24.9166 92.5935 24.9589 92.5935 25.0013C92.5935 25.1919 92.5723 25.2342 92.3812 25.2342C91.999 25.2342 91.6169 25.2342 91.2347 25.2342C89.8547 25.2342 88.4959 25.2342 87.1159 25.2342C86.4365 25.2342 85.8208 25.0224 85.3112 24.5989C84.738 24.133 84.4407 23.4976 84.4407 22.7564C84.462 21.7399 84.462 20.7021 84.462 19.6432Z" fill="#0E1111"/>
<path d="M136.309 25.4675C135.608 25.5098 134.929 25.3827 134.271 25.2133C133.612 25.0227 132.976 24.7262 132.402 24.345C131.511 23.752 130.768 23.032 130.152 22.1849C129.748 21.6342 129.451 21.0201 129.26 20.3636C128.963 19.4105 128.878 18.4364 128.963 17.4622C129.048 16.4668 129.324 15.5138 129.855 14.6455C130.428 13.6713 131.171 12.8666 132.063 12.21C132.593 11.8077 133.188 11.5112 133.804 11.2994C134.971 10.9182 136.16 10.8123 137.37 11.0029C137.816 11.0664 138.262 11.1723 138.687 11.2994C139.302 11.49 139.854 11.7865 140.385 12.1465C141.15 12.6971 141.786 13.3748 142.317 14.1372C142.381 14.2219 142.381 14.2855 142.275 14.349C141.341 14.942 140.385 15.535 139.451 16.128C139.048 16.3821 138.644 16.6574 138.22 16.9115C138.007 17.0386 138.007 17.0386 137.837 16.848C137.668 16.6574 137.477 16.488 137.285 16.3397C136.988 16.1068 136.606 16.0644 136.245 16.0856C135.905 16.1068 135.587 16.1068 135.268 16.2339C134.801 16.4033 134.462 16.6998 134.271 17.1657C134.037 17.7375 134.037 18.3305 134.186 18.9235C134.313 19.4741 134.653 19.8765 135.205 20.0671C135.799 20.2788 136.373 20.3212 136.988 20.1518C137.349 20.0459 137.625 19.8129 137.859 19.5164C137.88 19.4741 137.922 19.4529 137.944 19.4105C137.986 19.347 138.05 19.347 138.113 19.3894C139.196 20.0882 140.3 20.7871 141.383 21.486C141.68 21.6766 141.978 21.8672 142.275 22.0578C142.381 22.1213 142.381 22.1849 142.317 22.2696C141.659 23.2014 140.895 23.985 139.918 24.578C139.196 25.0015 138.411 25.298 137.583 25.4039C137.179 25.4674 136.755 25.4886 136.351 25.531C136.309 25.5098 136.309 25.4886 136.309 25.4675Z" fill="#0E1111"/>
<path d="M102.316 14.3493V5.75108C102.316 5.51813 102.337 5.49695 102.571 5.49695C104.121 5.49695 105.67 5.49695 107.242 5.49695C107.454 5.49695 107.475 5.5393 107.475 5.75108C107.475 10.262 107.475 14.7517 107.475 19.2626C107.475 19.4532 107.496 19.6438 107.518 19.8344C107.581 20.2368 107.921 20.5757 108.324 20.6392C108.494 20.6604 108.664 20.6604 108.855 20.6604C110.002 20.6604 111.169 20.6604 112.316 20.6604C112.486 20.6604 112.507 20.7027 112.507 20.8933C112.507 22.0793 112.507 23.2441 112.507 24.4301C112.507 24.6418 112.507 24.8536 112.507 25.0654C112.507 25.1925 112.464 25.256 112.316 25.256C111.764 25.256 111.212 25.256 110.66 25.256C108.664 25.256 106.668 25.256 104.651 25.256C104.163 25.256 103.675 25.1501 103.25 24.896C102.889 24.6842 102.634 24.3665 102.486 23.9641C102.316 23.5194 102.273 23.0747 102.273 22.6087C102.316 19.8556 102.316 17.1025 102.316 14.3493Z" fill="#0E1111"/>
<path d="M172.933 19.1987C172.933 17.3986 172.933 15.5984 172.933 13.7983C172.933 13.4595 172.954 13.0994 173.018 12.7606C173.188 11.9982 173.612 11.4687 174.377 11.2358C174.759 11.1087 175.141 11.0875 175.523 11.0875C177.604 11.0875 179.684 11.0875 181.744 11.0875C181.956 11.0875 181.999 11.1299 181.999 11.3417C181.999 12.7182 181.999 14.0736 181.999 15.4502C181.999 15.6831 181.977 15.7043 181.744 15.7043C180.958 15.7043 180.194 15.6831 179.408 15.7043C179.154 15.7043 178.899 15.7467 178.665 15.8314C178.304 15.9585 178.177 16.2761 178.135 16.6362C178.113 16.7632 178.135 16.8903 178.135 17.0174C178.135 19.707 178.135 22.3754 178.135 25.065C178.135 25.1921 178.092 25.2344 177.965 25.2344C176.372 25.2344 174.759 25.2344 173.166 25.2344C172.997 25.2344 172.954 25.1921 172.954 25.0438C172.912 23.0954 172.912 21.1471 172.933 19.1987Z" fill="#0E1111"/>
</g>
<defs>
<clipPath id="clip0_2268_5471">
<rect width="182" height="28.3077" fill="white" transform="translate(0 0.346191)"/>
</clipPath>
</defs>
</svg>
